<svg width="10" height="9" viewBox="0 0 10 9" fill="none" xmlns="http://www.w3.org/2000/svg">
<path d="M3.8002 7.8999C3.8002 8.39696 3.39725 8.7999 2.9002 8.7999C2.40314 8.7999 2.0002 8.39696 2.0002 7.8999C2.0002 7.40285 2.40314 6.9999 2.9002 6.9999C3.39725 6.9999 3.8002 7.40285 3.8002 7.8999Z" fill="white"/>
<path d="M8.0002 7.8999C8.0002 8.39696 7.59725 8.7999 7.10019 8.7999C6.60314 8.7999 6.20019 8.39696 6.20019 7.8999C6.20019 7.40285 6.60314 6.9999 7.10019 6.9999C7.59725 6.9999 8.0002 7.40285 8.0002 7.8999Z" fill="white"/>
<path d="M0.800195 0.399902C0.468824 0.399902 0.200195 0.668531 0.200195 0.999902V6.9999C0.200195 7.33127 0.468824 7.5999 0.800195 7.5999H1.4302C1.56918 6.91523 2.17451 6.3999 2.9002 6.3999C3.62588 6.3999 4.23121 6.91523 4.37019 7.5999H5.0002C5.33157 7.5999 5.60019 7.33127 5.60019 6.9999V0.999902C5.60019 0.668531 5.33157 0.399902 5.0002 0.399902H0.800195Z" fill="white"/>
<path d="M7.4002 2.1999C7.06882 2.1999 6.80019 2.46853 6.80019 2.7999V6.42991C6.89713 6.41023 6.99746 6.3999 7.10019 6.3999C7.82588 6.3999 8.43121 6.91523 8.57019 7.5999H9.20019C9.53157 7.5999 9.80019 7.33127 9.80019 6.9999V3.9999C9.80019 3.84077 9.73698 3.68816 9.62446 3.57564L8.42446 2.37564C8.31194 2.26312 8.15933 2.1999 8.0002 2.1999H7.4002Z" fill="white"/>
</svg>