<svg width="441" height="372" viewBox="0 0 441 372" fill="none" xmlns="http://www.w3.org/2000/svg">
<path d="M50.6312 363.875C50.6312 363.875 27.2947 314.168 32.3634 312.736C37.432 311.304 48.0592 319.218 48.0592 319.218C48.0592 319.218 16.8748 235.651 24.9488 229.169C33.0228 222.687 48.0969 255.86 48.0969 255.86C48.0969 255.86 31.9959 204.674 33.8896 185.2C35.7833 165.726 56.2368 184.484 56.2368 184.484C56.2368 184.484 39.8533 114.607 55.0686 110.998C70.284 107.39 69.7752 190.957 69.7752 190.957C69.7752 190.957 74.7685 131.16 80.864 147.732C86.9596 164.304 74.1467 219.767 74.1467 219.767C74.1467 219.767 82.5033 201.037 87.148 218.325C91.7927 235.613 77.9152 305.491 77.9152 305.491C77.9152 305.491 89.7106 293.969 90.8129 308.374C91.9152 322.779 66.393 367.445 66.393 367.445L51.9502 368.915L50.6312 363.875Z" fill="#47B2E4"/>
<path opacity="0.6" d="M50.6312 363.875C50.6312 363.875 27.2947 314.168 32.3634 312.736C37.432 311.304 48.0592 319.218 48.0592 319.218C48.0592 319.218 16.8748 235.651 24.9488 229.169C33.0228 222.687 48.0969 255.86 48.0969 255.86C48.0969 255.86 31.9959 204.674 33.8896 185.2C35.7833 165.726 56.2368 184.484 56.2368 184.484C56.2368 184.484 39.8533 114.607 55.0686 110.998C70.284 107.39 69.7752 190.957 69.7752 190.957C69.7752 190.957 74.7685 131.16 80.864 147.732C86.9596 164.304 74.1467 219.767 74.1467 219.767C74.1467 219.767 82.5033 201.037 87.148 218.325C91.7927 235.613 77.9152 305.491 77.9152 305.491C77.9152 305.491 89.7106 293.969 90.8129 308.374C91.9152 322.779 66.393 367.445 66.393 367.445L51.9502 368.915L50.6312 363.875Z" fill="white"/>
<path d="M55.6055 366.089C55.6055 366.089 36.16 331.513 39.759 325.022C43.3579 318.53 54.1641 333.67 54.1641 333.67C54.1641 333.67 29.6688 272.432 33.2771 266.676C36.8855 260.919 48.4077 286.131 48.4077 286.131C48.4077 286.131 44.1022 201.801 51.2812 204.674C58.4602 207.548 59.1762 247.899 59.1762 247.899C59.1762 247.899 54.8612 152.094 61.3431 154.977C67.8249 157.86 67.1089 264.471 67.1089 264.471C67.1089 264.471 80.0725 223.404 82.1829 242.133C84.2933 260.863 65.6203 311.295 65.6203 311.295C65.6203 311.295 83.6715 271.669 85.8666 292.603C88.0618 313.537 71.4238 352.353 71.4238 352.353C71.4238 352.353 77.9056 336.506 77.9056 345.145C77.9056 353.785 72.8653 364.6 72.8653 364.6" stroke="#263238" stroke-linecap="round" stroke-linejoin="round"/>
<path d="M31.3182 325.068L18.9104 365.957H52.5161L65.3007 325.285L31.3182 325.068Z" fill="#263238" stroke="#263238" stroke-linecap="round" stroke-linejoin="round"/>
<path d="M109.673 365.891H39.6452L31.3168 325.068H101.345L109.673 365.891Z" fill="white" stroke="#263238" stroke-linecap="round" stroke-linejoin="round"/>
<path d="M102.457 358.984H44.0456L39.6836 337.626H98.0954L102.457 358.984Z" stroke="#263238" stroke-linecap="round" stroke-linejoin="round"/>
<path d="M44.7058 337.711L49.0302 358.891" stroke="#263238" stroke-linecap="round" stroke-linejoin="round"/>
<path d="M50.0651 337.711L54.3894 358.891" stroke="#263238" stroke-linecap="round" stroke-linejoin="round"/>
<path d="M55.4263 337.711L59.7506 358.891" stroke="#263238" stroke-linecap="round" stroke-linejoin="round"/>
<path d="M60.7769 337.711L65.1012 358.891" stroke="#263238" stroke-linecap="round" stroke-linejoin="round"/>
<path d="M66.139 337.711L70.4633 358.891" stroke="#263238" stroke-linecap="round" stroke-linejoin="round"/>
<path d="M71.4982 337.711L75.8226 358.891" stroke="#263238" stroke-linecap="round" stroke-linejoin="round"/>
<path d="M76.8499 337.711L81.1742 358.891" stroke="#263238" stroke-linecap="round" stroke-linejoin="round"/>
<path d="M82.211 337.711L86.5354 358.891" stroke="#263238" stroke-linecap="round" stroke-linejoin="round"/>
<path d="M87.5626 337.711L91.887 358.891" stroke="#263238" stroke-linecap="round" stroke-linejoin="round"/>
<path d="M92.9237 337.711L97.2481 358.891" stroke="#263238" stroke-linecap="round" stroke-linejoin="round"/>
<path d="M40.6823 341.848H98.7644" stroke="#263238" stroke-linecap="round" stroke-linejoin="round"/>
<path d="M41.5483 346.105H99.6304" stroke="#263238" stroke-linecap="round" stroke-linejoin="round"/>
<path d="M42.4258 350.374H100.498" stroke="#263238" stroke-linecap="round" stroke-linejoin="round"/>
<path d="M43.2927 354.632H101.375" stroke="#263238" stroke-linecap="round" stroke-linejoin="round"/>
<path d="M65.1307 333.934H39.194L38.7794 331.861H64.7068L65.1307 333.934Z" fill="#263238"/>
<path d="M419.07 261.512H334.599C330.624 261.606 326.814 263.118 323.856 265.775C320.899 268.432 318.988 272.059 318.47 276.002L308.107 367.605H407.03L419.07 261.512Z" fill="white" stroke="#263238" stroke-linecap="round" stroke-linejoin="round"/>
<path d="M419.513 261.512C416.211 261.59 413.045 262.846 410.588 265.054C408.131 267.262 406.545 270.277 406.116 273.552L395.461 367.604H419.522L430.187 273.552C430.407 272.036 430.293 270.49 429.854 269.023C429.415 267.555 428.661 266.201 427.645 265.054C426.629 263.908 425.375 262.997 423.97 262.385C422.566 261.773 421.045 261.475 419.513 261.512Z" fill="#263238" stroke="#263238" stroke-linecap="round" stroke-linejoin="round"/>
<path d="M307.229 233.993C301.293 238.231 294.876 241.754 288.114 244.488C276.12 249.481 271.297 250.989 271.297 250.989L274.622 365.74H361.694C361.694 365.74 350.529 293.789 350.529 269.643C350.529 245.496 351.528 240.785 351.528 240.785L322.887 233.456L307.229 233.993Z" fill="#47B2E4" stroke="#263238" stroke-linecap="round" stroke-linejoin="round"/>
<path d="M297.734 238.825C295.02 258.315 293.409 277.942 292.911 297.614C292.411 327.093 298.074 366.389 298.074 366.389H234.282C242.215 351.383 247.888 335.287 251.118 318.623C255.829 294.759 259.597 254.304 260.596 253.805C261.595 253.306 295.407 240.785 297.734 238.825Z" fill="#263238" stroke="#263238" stroke-linecap="round" stroke-linejoin="round"/>
<path d="M268.763 366.398C268.763 366.398 262.263 322.43 262.592 312.104C262.922 301.778 264.561 266.807 264.561 266.807" stroke="#616161" stroke-linecap="round" stroke-linejoin="round"/>
<path d="M333.543 235.829C333.543 235.829 325.384 273.298 324.715 304.115C324.047 334.932 321.889 366.568 321.889 366.568H373.471C373.471 366.568 374.139 338.418 373.471 328.761C372.802 319.104 372.802 321.101 372.802 321.101L392.794 326.264C392.794 326.264 379.962 264.47 377.635 257.649C375.308 250.828 376.467 248.651 374.969 247.483C373.471 246.315 333.543 235.829 333.543 235.829Z" fill="#263238" stroke="#263238" stroke-linecap="round" stroke-linejoin="round"/>
<path d="M240.377 340.923C241.721 342.985 243.302 344.882 245.087 346.576C247.377 348.536 252.285 347.518 254.895 350.194C257.504 352.87 254.65 361.038 251.352 363.893C245.7 368.764 248.696 353.981 248.696 353.981C246.702 355.348 244.5 356.382 242.176 357.043C238.973 357.778 230.729 355.272 227.969 355.159C225.208 355.046 221.374 354.518 219.904 351.447C218.434 348.376 227.554 344.673 231.605 343.203C234.467 342.221 237.399 341.459 240.377 340.923Z" fill="white" stroke="#263238" stroke-linecap="round" stroke-linejoin="round"/>
<path d="M222.929 345.257C222.057 345.024 221.137 345.052 220.282 345.337C219.426 345.621 218.673 346.15 218.114 346.858C216.23 349.336 212.462 360.529 213.564 362.686C214.666 364.844 217.521 361.819 218.877 358.267C219.456 356.556 220.227 354.915 221.176 353.378C221.176 353.378 222.665 354.103 223.711 352.162C224.756 350.222 225.811 347.31 222.929 345.257Z" fill="white" stroke="#263238" stroke-linecap="round" stroke-linejoin="round"/>
<path d="M228.261 343.308C227.348 342.782 226.282 342.589 225.243 342.761C224.204 342.932 223.256 343.459 222.561 344.25C219.914 347.076 221.732 358.956 223.136 362.593C224.539 366.229 227.196 365.777 227.592 363.535C227.988 361.292 228.44 350.11 228.581 347.519C228.698 346.107 228.59 344.685 228.261 343.308Z" fill="white" stroke="#263238" stroke-linecap="round" stroke-linejoin="round"/>
<path d="M233.915 342.026C233.014 341.458 231.936 341.241 230.886 341.415C229.836 341.588 228.885 342.141 228.215 342.968C225.586 345.954 227.527 358.522 228.968 362.385C230.41 366.248 233.067 365.796 233.444 363.393C233.82 360.991 234.16 349.186 234.273 346.435C234.369 344.955 234.248 343.47 233.915 342.026Z" fill="white" stroke="#263238" stroke-linecap="round" stroke-linejoin="round"/>
<path d="M242.186 343.552C242.186 343.552 239.991 338.643 236.411 339.454C232.831 340.264 231.701 345.106 232.36 352.455C233.019 359.804 234.395 365.645 236.392 365.852C238.39 366.059 240.566 361.622 240.962 355.884C241.357 350.147 241.951 346.717 241.951 346.717" fill="white"/>
<path d="M242.186 343.552C242.186 343.552 239.991 338.643 236.411 339.454C232.831 340.264 231.701 345.106 232.36 352.455C233.019 359.804 234.395 365.645 236.392 365.852C238.39 366.059 240.566 361.622 240.962 355.884C241.357 350.147 241.951 346.717 241.951 346.717" stroke="#263238" stroke-linecap="round" stroke-linejoin="round"/>
<path d="M288.219 292.197H266.013V326.283H288.219V292.197Z" fill="#47B2E4" stroke="#263238" stroke-linecap="round" stroke-linejoin="round"/>
<path d="M278.665 282.267H274.576V298.038H278.665V282.267Z" fill="white" stroke="#263238" stroke-linecap="round" stroke-linejoin="round"/>
<path d="M281.002 301.74H271.458V314.205H281.002V301.74Z" fill="white" stroke="#263238" stroke-linecap="round" stroke-linejoin="round"/>
<path d="M269.903 317.907H282.951" stroke="#263238" stroke-linecap="round" stroke-linejoin="round"/>
<path d="M267.953 320.63H284.704" stroke="#263238" stroke-linecap="round" stroke-linejoin="round"/>
<path d="M304.904 229.169C304.904 229.169 297.734 233.992 296.425 237.827C295.115 241.661 289.594 257.979 287.427 264.141C285.26 270.302 272.937 275.635 274.605 276.803C276.273 277.971 292.43 279.46 292.43 279.46C292.43 279.46 296.095 293.789 296.924 297.454C297.753 301.119 302.756 312.274 302.756 312.274C302.756 312.274 317.575 294.449 319.912 289.663C321.517 286.426 323.353 283.309 325.404 280.336C325.404 280.336 331.735 281.834 335.768 282.503C339.8 283.172 350.757 284.161 350.258 282.333C349.758 280.505 344.266 272.507 342.099 264.678C339.932 256.848 341.26 239.692 338.604 233.032C335.947 226.371 330.124 225.372 328.108 224.873C326.092 224.373 307.9 226.333 304.904 229.169Z" fill="#47B2E4" stroke="#263238" stroke-linecap="round" stroke-linejoin="round"/>
<path d="M302.567 224.006C302.567 224.006 304.734 236.159 304.451 245.986C304.169 255.812 300.617 277.801 300.786 289.126C300.955 296.648 301.566 304.154 302.614 311.605C302.614 311.605 318.941 289.126 324.933 270.801C330.925 252.477 332.593 236.828 332.593 235.66C332.593 234.492 332.922 207.349 332.922 207.349C332.922 207.349 315.559 225.504 302.567 224.006Z" fill="white" stroke="#263238" stroke-linecap="round" stroke-linejoin="round"/>
<path d="M332.742 218.871C332.808 212.766 332.874 207.349 332.874 207.349C332.874 207.349 315.558 225.504 302.566 224.006C302.566 224.006 303.178 227.426 303.697 232.108C305.396 233.272 307.282 234.136 309.274 234.661C315.285 235.867 322.021 232.504 326.59 226.729C328.277 224.599 330.51 221.698 332.742 218.871Z" fill="#263238" stroke="#263238" stroke-linecap="round" stroke-linejoin="round"/>
<path d="M344.622 163.709C353.775 163.709 361.194 156.366 361.194 147.307C361.194 138.248 353.775 130.905 344.622 130.905C335.47 130.905 328.05 138.248 328.05 147.307C328.05 156.366 335.47 163.709 344.622 163.709Z" fill="#263238" stroke="#263238" stroke-linecap="round" stroke-linejoin="round"/>
<path d="M277.516 175.966C277.516 175.966 268.622 173.555 267.152 168.75C265.682 163.945 271.005 147.081 288.322 138.441C305.638 129.802 321.522 134.588 328.494 136.51C335.466 138.432 340.525 142.05 345.094 154.797C349.664 167.544 349.899 177.408 348.458 182.213C347.601 185.086 346.556 187.899 345.33 190.635C345.33 190.635 336.436 191.578 334.024 187.988C331.612 184.399 332.583 166.319 322.238 162.014C311.894 157.708 292.175 160.129 287.38 164.416C282.584 168.703 277.516 175.966 277.516 175.966Z" fill="#263238" stroke="#263238" stroke-linecap="round" stroke-linejoin="round"/>
<path d="M276.074 172.839C276.074 172.839 278.241 186.547 278.241 193.999C278.241 201.451 284.252 211.805 287.38 214.726C290.508 217.647 300.852 227.473 306.863 228.679C312.874 229.885 319.61 226.512 324.179 220.737C328.749 214.962 337.652 203.42 337.652 203.42C339.637 203.642 341.637 203.162 343.306 202.064C344.975 200.966 346.207 199.32 346.79 197.41C349.202 190.428 347.996 182.496 343.908 181.535C339.819 180.574 336.936 185.379 336.936 185.379C336.936 185.379 333.563 172.396 329.239 165.895L322.983 156.474L330.963 146.497C331.05 146.388 331.114 146.263 331.151 146.129C331.188 145.995 331.197 145.855 331.177 145.717C331.158 145.579 331.11 145.447 331.038 145.328C330.965 145.21 330.869 145.107 330.755 145.027C330.541 144.873 330.275 144.808 330.014 144.845C329.753 144.882 329.515 145.018 329.352 145.225L321.541 155.278C321.541 155.278 306.147 152.63 292.675 159.366C279.202 166.103 276.074 172.839 276.074 172.839Z" fill="white" stroke="#263238" stroke-linecap="round" stroke-linejoin="round"/>
<path d="M325.498 186.377L323.331 189.27" stroke="#263238" stroke-linecap="round" stroke-linejoin="round"/>
<path d="M295.802 202.902C295.802 202.902 296.283 204.344 299.411 205.069C300.87 205.408 302.397 205.317 303.805 204.805C305.213 204.293 306.442 203.383 307.343 202.186" stroke="#263238" stroke-linecap="round" stroke-linejoin="round"/>
<path d="M299.42 210.637C302.386 211.306 305.475 211.192 308.383 210.307C311.292 209.421 313.921 207.795 316.011 205.587C316.011 205.587 313.853 214.726 309.52 216.412C305.186 218.099 304.95 213.52 304.95 213.52L299.42 210.637Z" stroke="#263238" stroke-linecap="round" stroke-linejoin="round"/>
<path d="M308.069 192.322C310.063 190.446 312.488 189.091 315.131 188.377C317.774 187.664 320.552 187.615 323.219 188.233" stroke="#263238" stroke-width="2" stroke-linecap="round" stroke-linejoin="round"/>
<path d="M292.43 191.841C292.43 191.841 287.144 186.546 281.605 189.429" stroke="#263238" stroke-width="2" stroke-linecap="round" stroke-linejoin="round"/>
<path d="M279.927 188.233L282.565 190.881" stroke="#263238" stroke-linecap="round" stroke-linejoin="round"/>
<path d="M306.381 179.33C306.381 179.33 313.551 171.068 323.914 178.85" stroke="#263238" stroke-linecap="round" stroke-linejoin="round"/>
<path d="M291.949 179.085C291.949 179.085 285.458 174.035 278.957 179.811" stroke="#263238" stroke-linecap="round" stroke-linejoin="round"/>
<path d="M313.731 191.032C313.74 191.267 313.678 191.499 313.553 191.698C313.429 191.897 313.247 192.054 313.032 192.148C312.816 192.242 312.578 192.269 312.347 192.226C312.116 192.182 311.903 192.07 311.737 191.904C311.571 191.738 311.459 191.525 311.415 191.294C311.372 191.064 311.399 190.825 311.493 190.61C311.587 190.394 311.744 190.212 311.943 190.088C312.142 189.963 312.375 189.901 312.609 189.911C312.903 189.922 313.182 190.044 313.389 190.252C313.597 190.46 313.719 190.738 313.731 191.032Z" fill="#263238"/>
<path d="M286.23 190.023C286.231 190.255 286.165 190.481 286.037 190.675C285.91 190.868 285.728 191.019 285.515 191.109C285.302 191.199 285.067 191.223 284.839 191.179C284.612 191.135 284.403 191.025 284.239 190.862C284.074 190.699 283.962 190.491 283.916 190.264C283.87 190.037 283.893 189.802 283.981 189.588C284.069 189.374 284.219 189.191 284.411 189.062C284.604 188.933 284.83 188.864 285.061 188.864C285.37 188.864 285.665 188.986 285.884 189.203C286.103 189.42 286.227 189.715 286.23 190.023Z" fill="#263238"/>
<path d="M343.069 166.564C343.069 166.564 343.898 177.389 341.901 185.548L345.066 186.547C345.066 186.547 347.563 174.054 346.395 167.064L343.069 166.564Z" fill="#47B2E4" stroke="#263238" stroke-linecap="round" stroke-linejoin="round"/>
<path d="M321.55 134.898C325.033 136.636 328.137 139.047 330.682 141.992C333.227 144.937 335.164 148.357 336.379 152.055C340.204 164.378 339.705 168.212 342.032 169.54C344.359 170.869 348.862 171.707 349.023 168.711C349.183 165.715 348.146 152.347 341.486 144.056C336.492 137.744 325.714 135.068 321.55 134.898Z" fill="#47B2E4" stroke="#263238" stroke-linecap="round" stroke-linejoin="round"/>
<path d="M344.388 183.165C339.592 181.695 334.326 185.049 332.611 190.617C331.028 195.771 333.044 201.028 337.133 202.968C334.131 210.596 329.667 217.564 323.991 223.478C322.886 223.342 321.77 223.625 320.863 224.27C319.148 225.429 318.394 227.322 319.195 228.509C319.996 229.696 322.022 229.715 323.746 228.566C325.47 227.417 326.082 225.74 325.536 224.59C331.339 218.533 335.892 211.39 338.933 203.571C343.512 204.514 348.354 201.235 349.965 195.931C351.68 190.353 349.183 184.635 344.388 183.165Z" fill="#47B2E4" stroke="#263238" stroke-linecap="round" stroke-linejoin="round"/>
<path d="M348.458 194.055C347.647 197.617 344.435 199.934 341.279 199.218C338.123 198.502 336.219 195.026 337.03 191.465C337.84 187.903 341.053 185.586 344.209 186.292C347.365 186.999 349.268 190.485 348.458 194.055Z" fill="#47B2E4" stroke="#263238" stroke-linecap="round" stroke-linejoin="round"/>
<path d="M347.535 252.816C347.535 252.816 342.871 241.162 341.882 238.995C340.893 236.828 349.042 224.006 350.361 222.169C351.68 220.332 354.186 216.516 354.186 215.678C354.186 214.839 344.699 205.512 342.692 204.014C340.686 202.516 337.369 205.898 337.369 205.898C337.369 205.898 328.711 217.392 328.711 218.721C328.711 220.049 332.866 224.213 332.866 224.213C332.866 224.213 326.375 233.54 327.213 237.205C328.052 240.87 331.378 244.035 331.378 244.035L336.041 262.021L347.535 252.816Z" fill="white" stroke="#263238" stroke-linecap="round" stroke-linejoin="round"/>
<path d="M332.876 224.165C332.876 224.165 338.529 219.671 338.039 218.343C337.845 217.948 337.533 217.624 337.146 217.415C336.76 217.206 336.318 217.122 335.881 217.175" stroke="#263238" stroke-linecap="round" stroke-linejoin="round"/>
<path d="M336.878 207.349C337.378 207.349 352.028 217.006 351.698 218.655C351.407 219.872 350.96 221.047 350.37 222.15" stroke="#263238" stroke-linecap="round" stroke-linejoin="round"/>
<path d="M338.545 205.851C338.545 205.851 352.366 214.509 352.677 216.007C352.739 216.499 352.681 216.999 352.507 217.463C352.333 217.928 352.049 218.343 351.679 218.673" stroke="#263238" stroke-linecap="round" stroke-linejoin="round"/>
<path d="M340.044 204.353C340.044 204.353 354.533 214.179 354.175 215.659C353.778 216.871 353.158 217.999 352.348 218.984" stroke="#263238" stroke-linecap="round" stroke-linejoin="round"/>
<path d="M349.532 251.488L327.213 264.338C327.213 264.338 356.193 333.283 361.525 342.61C366.858 351.938 381.178 354.104 388.677 351.608C396.177 349.111 399.832 334.122 397.335 327.791C394.839 321.46 376.844 293.789 368.196 279.959C359.547 266.128 349.532 251.488 349.532 251.488Z" fill="#263238" stroke="#263238" stroke-linecap="round" stroke-linejoin="round"/>
<path d="M337.736 287.892C337.736 287.892 362.231 334.998 368.506 344.419" stroke="#616161" stroke-linecap="round" stroke-linejoin="round"/>
<path d="M351.548 257.075L386.096 309.834" stroke="#616161" stroke-linecap="round" stroke-linejoin="round"/>
<path d="M253.587 188.837V158.51C253.587 157.34 253.123 156.219 252.296 155.392C251.469 154.565 250.348 154.101 249.178 154.101H175.212C174.043 154.101 172.921 154.565 172.094 155.392C171.267 156.219 170.803 157.34 170.803 158.51V188.837C170.803 190.006 171.267 191.128 172.094 191.955C172.921 192.781 174.043 193.246 175.212 193.246H238.73L253.192 207.161L250.299 193.086C251.239 192.839 252.071 192.288 252.665 191.52C253.26 190.752 253.584 189.808 253.587 188.837Z" fill="white" stroke="#263238" stroke-linecap="round" stroke-linejoin="round"/>
<path d="M197.587 176.381C199.413 176.381 200.894 174.901 200.894 173.074C200.894 171.248 199.413 169.768 197.587 169.768C195.761 169.768 194.28 171.248 194.28 173.074C194.28 174.901 195.761 176.381 197.587 176.381Z" fill="#263238"/>
<path d="M212.191 176.381C214.017 176.381 215.497 174.901 215.497 173.074C215.497 171.248 214.017 169.768 212.191 169.768C210.364 169.768 208.884 171.248 208.884 173.074C208.884 174.901 210.364 176.381 212.191 176.381Z" fill="#263238"/>
<path d="M226.803 176.381C228.629 176.381 230.11 174.901 230.11 173.074C230.11 171.248 228.629 169.768 226.803 169.768C224.976 169.768 223.496 171.248 223.496 173.074C223.496 174.901 224.976 176.381 226.803 176.381Z" fill="#263238"/>
<path d="M182.814 188.14V181.357L175.682 179.774C175.294 178.397 174.747 177.069 174.052 175.817L177.962 169.656L173.176 164.86L167.015 168.779C165.77 168.079 164.444 167.531 163.067 167.15L161.475 160.018H154.692L153.109 167.15C151.729 167.53 150.4 168.077 149.152 168.779L143.028 164.86L138.233 169.656L142.086 175.779C141.384 177.027 140.836 178.356 140.456 179.736L133.324 181.319V188.103L140.456 189.695C140.835 191.085 141.383 192.423 142.086 193.68L138.167 199.841L142.962 204.637L149.124 200.718C150.373 201.419 151.701 201.969 153.081 202.357L154.664 209.479H161.447L163.039 202.357C164.415 201.968 165.74 201.417 166.987 200.718L173.148 204.637L177.943 199.841L174.052 193.68C174.745 192.431 175.292 191.106 175.682 189.732L182.814 188.14ZM158.102 193.51C156.369 193.51 154.675 192.996 153.234 192.034C151.794 191.071 150.671 189.703 150.007 188.102C149.344 186.501 149.171 184.739 149.509 183.039C149.847 181.34 150.681 179.778 151.907 178.553C153.132 177.328 154.693 176.493 156.393 176.155C158.093 175.817 159.854 175.991 161.455 176.654C163.056 177.317 164.425 178.44 165.387 179.881C166.35 181.322 166.864 183.016 166.864 184.749C166.864 185.899 166.637 187.039 166.197 188.102C165.757 189.165 165.111 190.13 164.298 190.944C163.484 191.758 162.518 192.403 161.455 192.843C160.392 193.284 159.253 193.51 158.102 193.51Z" fill="#263238" stroke="#263238" stroke-linecap="round" stroke-linejoin="round"/>
<path d="M123.025 366.314H278.852V360.03H123.025V366.314Z" fill="white" stroke="#263238" stroke-linecap="round" stroke-linejoin="round"/>
<path d="M99.0949 366.314H234.912V360.03H99.0949V366.314Z" fill="white" stroke="#263238" stroke-linecap="round" stroke-linejoin="round"/>
<path d="M96.4669 348.847H226.405L212.396 249.651H82.4575L96.4669 348.847Z" fill="white" stroke="#263238" stroke-linecap="round" stroke-linejoin="round"/>
<path d="M91.0867 348.847H221.025L207.015 249.651H77.0773L91.0867 348.847Z" fill="#263238" stroke="#263238" stroke-linecap="round" stroke-linejoin="round"/>
<path d="M130.901 302.74L117.862 366.315H151.392L164.431 302.74H130.901ZM153.644 321.583C153.59 321.85 153.444 322.089 153.233 322.261C153.022 322.433 152.758 322.526 152.485 322.525L133.492 322.336C133.314 322.334 133.139 322.292 132.98 322.213C132.82 322.134 132.681 322.02 132.571 321.88C132.462 321.74 132.386 321.577 132.348 321.403C132.31 321.229 132.311 321.049 132.352 320.876L134.067 313.744C134.121 313.477 134.266 313.238 134.478 313.066C134.689 312.894 134.953 312.801 135.226 312.802L154.228 312.981C154.405 312.985 154.579 313.028 154.737 313.108C154.896 313.187 155.034 313.301 155.142 313.441C155.251 313.581 155.326 313.744 155.364 313.917C155.401 314.09 155.4 314.269 155.359 314.441L153.644 321.583Z" fill="white" stroke="#263238" stroke-linecap="round" stroke-linejoin="round"/>
<path d="M1.00006 370.875L439.56 370.875V366.314L1.00006 366.314V370.875Z" fill="#263238" stroke="#263238" stroke-linecap="round" stroke-linejoin="round"/>
<path d="M315.302 65.1071L312.532 57.0708H284.711L287.227 104.177H351.913V65.1071H315.302Z" stroke="#263238" stroke-linecap="round" stroke-linejoin="round"/>
<path d="M351.913 104.177L357.434 61.0181H313.625" stroke="#263238" stroke-linecap="round" stroke-linejoin="round"/>
<path d="M164.77 88.4474C168.875 70.9453 158.015 53.4292 140.513 49.3241C123.011 45.219 105.495 56.0795 101.389 73.5816C97.2844 91.0837 108.145 108.6 125.647 112.705C143.149 116.81 160.665 105.95 164.77 88.4474Z" stroke="#263238" stroke-linecap="round" stroke-linejoin="round"/>
<path d="M158.6 87.1325C161.969 73.044 153.28 58.8917 139.191 55.5224C125.103 52.153 110.95 60.8426 107.581 74.931C104.212 89.0195 112.901 103.172 126.99 106.541C141.078 109.91 155.231 101.221 158.6 87.1325Z" stroke="#263238" stroke-linecap="round" stroke-linejoin="round"/>
<path d="M136.563 81.0198C136.563 81.7073 136.359 82.3794 135.977 82.9511C135.595 83.5228 135.052 83.9684 134.417 84.2315C133.782 84.4946 133.083 84.5634 132.409 84.4293C131.734 84.2952 131.115 83.9641 130.629 83.4779C130.142 82.9917 129.811 82.3723 129.677 81.698C129.543 81.0236 129.612 80.3247 129.875 79.6894C130.138 79.0542 130.584 78.5113 131.155 78.1293C131.727 77.7473 132.399 77.5435 133.087 77.5435C134.009 77.5435 134.893 77.9097 135.545 78.5616C136.197 79.2136 136.563 80.0978 136.563 81.0198V81.0198Z" stroke="#263238" stroke-linecap="round" stroke-linejoin="round"/>
<path d="M132.983 56.7598V63.251" stroke="#263238" stroke-linecap="round" stroke-linejoin="round"/>
<path d="M132.983 98.9209V105.403" stroke="#263238" stroke-linecap="round" stroke-linejoin="round"/>
<path d="M115.789 63.8828L120.368 68.4707" stroke="#263238" stroke-linecap="round" stroke-linejoin="round"/>
<path d="M145.596 93.6914L150.175 98.2793" stroke="#263238" stroke-linecap="round" stroke-linejoin="round"/>
<path d="M108.667 81.0854H115.149" stroke="#263238" stroke-linecap="round" stroke-linejoin="round"/>
<path d="M150.816 81.0854H157.298" stroke="#263238" stroke-linecap="round" stroke-linejoin="round"/>
<path d="M115.789 98.2793L120.368 93.6914" stroke="#263238" stroke-linecap="round" stroke-linejoin="round"/>
<path d="M145.596 68.4707L150.175 63.8828" stroke="#263238" stroke-linecap="round" stroke-linejoin="round"/>
<path d="M129.61 81.02H120.01" stroke="#263238" stroke-linecap="round" stroke-linejoin="round"/>
<path d="M133.085 77.5432V64.8716" stroke="#263238" stroke-linecap="round" stroke-linejoin="round"/>
<path d="M260.867 57.0708H186.128V104.808H260.867V57.0708Z" stroke="#263238" stroke-linecap="round" stroke-linejoin="round"/>
<path d="M186.128 57.0708L223.493 80.9346L260.867 57.0708" stroke="#263238" stroke-linecap="round" stroke-linejoin="round"/>
<path d="M186.128 104.809L214.392 79.0508" stroke="#263238" stroke-linecap="round" stroke-linejoin="round"/>
<path d="M260.508 104.809L232.244 79.0508" stroke="#263238" stroke-linecap="round" stroke-linejoin="round"/>
</svg>
